<svg height="511pt" viewBox="1 -22 511.99898 511" width="511pt" xmlns="http://www.w3.org/2000/svg"><path d="m416.589844 141.589844h-83.082032c2.570313-7.5625 5.375-16.640625 7.816407-26.460938 9.257812-37.25 8.648437-66.140625-1.808594-85.875-7.855469-14.824218-21.25-24.382812-38.730469-27.644531-20.15625-3.753906-37.675781 2.023437-52.074218 17.175781-11.308594 11.90625-19.613282 28.164063-28.402344 45.378906-17.367188 34.011719-35.320313 69.171876-78.011719 77.421876l-126.9375.003906c-8.484375 0-15.359375 6.875-15.359375 15.359375v294.496093c0 8.484376 6.875 15.359376 15.359375 15.359376h401.230469c52.609375 0 95.410156-42.800782 95.410156-95.410157v-134.394531c0-52.609375-42.800781-95.410156-95.410156-95.410156zm-385.875 30.714844h76.734375v263.785156h-76.734375zm450.570312 199.089843c0 35.671875-29.023437 64.695313-64.695312 64.695313h-278.421875v-263.785156h5.542969c.90625 0 1.808593-.082032 2.699218-.238282 58.636719-10.472656 82.269532-56.75 101.257813-93.933594 18.28125-35.800781 27.695312-50.023437 47.488281-46.324218 8.285156 1.542968 13.757812 5.296875 17.214844 11.816406 12.609375 23.753906-2.609375 78.34375-15.164063 107.175781-2.070312 4.746094-1.613281 10.21875 1.226563 14.558594 2.835937 4.332031 7.667968 6.945313 12.847656 6.945313h105.308594c35.671875 0 64.695312 29.023437 64.695312 64.695312zm0 0"/><path d="m69.082031 339.453125c-8.480469 0-15.359375 6.878906-15.359375 15.359375v41.90625c0 8.480469 6.878906 15.359375 15.359375 15.359375s15.359375-6.878906 15.359375-15.359375v-41.90625c0-8.480469-6.878906-15.359375-15.359375-15.359375zm0 0"/></svg>