<svg height="421pt" viewBox="-49 0 421 421.22499" width="421pt" xmlns="http://www.w3.org/2000/svg"><path d="m170.40625 26.070312-73.539062 73.539063c-25.054688 25.261719-32.777344 62.960937-19.671876 96.039063l11.1875-11.1875c2.574219-2.566407 5.28125-4.992188 8.109376-7.273438-5.105469-21.84375 1.457031-44.773438 17.347656-60.609375l73.539062-73.539063c25.382813-25.386718 66.539063-25.386718 91.925782 0 25.382812 25.382813 25.382812 66.539063 0 91.925782l-73.539063 73.539062c-19.582031 19.636719-49.484375 24.65625-74.402344 12.484375-1.164062.964844-2.292969 1.984375-3.378906 3.070313l-14.484375 14.484375c35.09375 21.246093 80.148438 15.855469 109.238281-13.070313l73.539063-73.539062c34.753906-34.757813 34.753906-91.109375-.003906-125.867188-34.757813-34.757812-91.109376-34.753906-125.867188.003906zm0 0"/><path d="m234.046875 236.785156c-2.570313 2.574219-5.273437 5.011719-8.097656 7.300782 5.097656 21.839843-1.46875 44.757812-17.351563 60.585937l-73.539062 73.539063c-25.386719 25.386718-66.542969 25.386718-91.925782 0-25.386718-25.382813-25.386718-66.539063 0-91.921876l73.539063-73.539062c19.597656-19.613281 49.480469-24.628906 74.40625-12.488281 1.160156-.964844 2.289063-1.984375 3.375-3.070313l14.484375-14.484375c-35.101562-21.210937-80.132812-15.824219-109.238281 13.070313l-73.539063 73.535156c-34.738281 34.761719-34.730468 91.097656.019532 125.84375 34.75 34.75 91.085937 34.757812 125.84375.023438l73.539062-73.539063c25.058594-25.261719 32.78125-62.964844 19.675781-96.042969zm0 0"/></svg>