<?xml version="1.0" encoding="iso-8859-1"?>
<!-- Generator: Adobe Illustrator 19.0.0, SVG Export Plug-In . SVG Version: 6.00 Build 0)  -->
<svg version="1.1" id="Layer_1" xmlns="http://www.w3.org/2000/svg" xmlns:xlink="http://www.w3.org/1999/xlink" x="0px" y="0px"
	 viewBox="0 0 512.001 512.001" style="enable-background:new 0 0 512.001 512.001;" xml:space="preserve">
<g>
	<g>
		<g>
			<path d="M268.738,321.67c1.563,1.501,3.578,2.251,5.593,2.251s4.031-0.75,5.594-2.251l55.959-53.715
				c7.514-7.215,11.771-16.922,11.986-27.332c0.215-10.417-3.64-20.291-10.854-27.801c-7.423-7.737-17.418-11.998-28.143-11.998
				c-10.113,0-19.702,3.858-26.998,10.862l-7.543,7.241l-7.546-7.241c-7.299-7.005-16.889-10.862-27.002-10.862
				c-10.725,0-20.721,4.261-28.144,11.997c-14.885,15.508-14.377,40.242,1.137,55.138L268.738,321.67z M223.296,224.008
				c4.349-4.532,10.206-7.027,16.489-7.027c5.924,0,11.54,2.26,15.815,6.362l13.138,12.609c3.125,2.999,8.06,2.999,11.187,0
				l13.136-12.609c4.275-4.103,9.89-6.362,15.813-6.362c6.283,0,12.138,2.495,16.489,7.03c4.226,4.4,6.485,10.181,6.358,16.279
				c-0.126,6.099-2.621,11.786-7.021,16.012l-50.369,48.346l-50.369-48.344C214.876,247.578,214.576,233.091,223.296,224.008z"/>
			<path d="M196.156,390.724c0,4.462,3.616,8.078,8.078,8.078h140.193c4.462,0,8.078-3.615,8.078-8.078
				c0-4.461-3.616-8.078-8.078-8.078H204.234C199.772,382.646,196.156,386.262,196.156,390.724z"/>
			<path d="M204.234,443.264h140.193c4.462,0,8.078-3.616,8.078-8.078c0-4.461-3.616-8.078-8.078-8.078H204.234
				c-4.462,0-8.078,3.617-8.078,8.078S199.772,443.264,204.234,443.264z"/>
			<path d="M436.526,69.076h-14.918V8.077c0-2.425-1.091-4.724-2.969-6.257c-1.878-1.535-4.348-2.14-6.726-1.658L74.539,69.1
				c-14.166,0.495-25.54,12.168-25.54,26.454v389.97c0,14.6,11.877,26.477,26.476,26.477h29.895h65.983
				c4.462,0,8.078-3.616,8.078-8.078c0-4.462-3.616-8.078-8.078-8.078h-57.905V85.231h300.084h22.995
				c5.691,0,10.321,4.631,10.321,10.322v389.97c0,5.691-4.63,10.322-10.321,10.322H199.352c-4.462,0-8.078,3.615-8.078,8.078
				c0,4.462,3.616,8.078,8.078,8.078h237.174c14.599,0,26.476-11.877,26.476-26.477V95.553
				C463.002,80.953,451.125,69.076,436.526,69.076z M97.292,495.846H75.475c-5.691,0-10.321-4.631-10.321-10.322V95.553
				c0-5.691,4.63-10.322,10.321-10.322h21.817V495.846z M405.454,69.076H155.355l250.099-51.103V69.076z"/>
		</g>
	</g>
</g>
<g>
</g>
<g>
</g>
<g>
</g>
<g>
</g>
<g>
</g>
<g>
</g>
<g>
</g>
<g>
</g>
<g>
</g>
<g>
</g>
<g>
</g>
<g>
</g>
<g>
</g>
<g>
</g>
<g>
</g>
</svg>
