<svg height="457pt" viewBox="0 -38 457.14286 457" width="457pt" xmlns="http://www.w3.org/2000/svg"><path d="m448 .0703125h-438.855469c-5.054687 0-9.144531 4.0898435-9.144531 9.1445315v363.429687c0 5.050781 4.089844 9.140625 9.144531 9.140625h438.855469c5.054688 0 9.144531-4.089844 9.144531-9.140625v-363.429687c0-5.054688-4.089843-9.1445315-9.144531-9.1445315zm-9.144531 18.2851565v216.933593l-112.5625-158.699218c-1.792969-2.535156-4.730469-3.984375-7.847657-3.847656-3.097656.132812-5.917968 1.828124-7.488281 4.507812l-67.320312 114.699219-73.40625-60.636719c-3.605469-2.992188-8.917969-2.757812-12.265625.5625l-139.679688 138.792969v-252.3125zm-420.570313 278.089843 146.6875-145.757812 69.289063 57.226562-91.316407 155.585938h-124.660156zm145.859375 67.054688 155.417969-264.792969 119.292969 168.175781v96.617188zm0 0"/><path d="m124.554688 121.652344c21.964843 0 39.839843-17.875 39.839843-39.839844s-17.875-39.839844-39.839843-39.839844c-21.964844 0-39.839844 17.875-39.839844 39.839844s17.875 39.839844 39.839844 39.839844zm0-61.394532c11.882812 0 21.550781 9.671876 21.550781 21.554688s-9.667969 21.554688-21.550781 21.554688c-11.886719 0-21.554688-9.671876-21.554688-21.554688s9.667969-21.554688 21.554688-21.554688zm0 0"/></svg>